<?xml version="1.0" encoding="utf-8"?>
<!-- Generator: Adobe Illustrator 20.1.0, SVG Export Plug-In . SVG Version: 6.00 Build 0)  -->
<svg version="1.1" id="Layer_1" xmlns="http://www.w3.org/2000/svg" xmlns:xlink="http://www.w3.org/1999/xlink" x="0px" y="0px"
	 viewBox="0 0 480 306" style="enable-background:new 0 0 480 306;" xml:space="preserve">
<style type="text/css">
	.st0{fill:#EDEDED;}
</style>
<g>
	<path class="st0" d="M421.2,22.2H453l-98.8,264.6h-37.8l-70.9-198c-1.3-3.3-5-17.7-11.1-43.3l-4.4,17.2l-7.3,25.7L153,286.7h-36.9
		L16.4,22.2h32.7l65.5,182.2c10.2,29.7,16.7,50.4,19.7,62.3c4.7-19.3,10.7-39.8,18.1-61.5l65.1-183h35.3l64.8,182.2
		c6.8,19.8,11.7,36.1,14.6,48.9l3.2,13.4c6.1-25.5,12.2-46.2,18.1-62.3L421.2,22.2z"/>
</g>
</svg>
