<?xml version="1.0" encoding="utf-8"?>
<!-- Generator: Adobe Illustrator 20.1.0, SVG Export Plug-In . SVG Version: 6.00 Build 0)  -->
<svg version="1.1" id="Layer_1" xmlns="http://www.w3.org/2000/svg" xmlns:xlink="http://www.w3.org/1999/xlink" x="0px" y="0px"
	 viewBox="0 0 408 132" style="enable-background:new 0 0 408 132;" xml:space="preserve">
<style type="text/css">
	.st0{fill:#F3F3F3;}
</style>
<g>
	<path class="st0" d="M83.9,127.3H61.1V73.5H31v53.7H8.2V4.7H31v48.7h30.1V4.7h22.8V127.3z"/>
	<path class="st0" d="M160.8,127.3h-55.2V4.7h55.2v19.7h-32.4v29.2h30.1v19.8h-30.1v34h32.4V127.3z"/>
	<path class="st0" d="M178.7,127.3V4.7h22.8v102.6h31.6v20H178.7z"/>
	<path class="st0" d="M247.6,127.3V4.7h22.8v102.6h31.6v20H247.6z"/>
	<path class="st0" d="M401,65.8c0,20.3-3.8,35.9-11.4,46.8s-18.5,16.3-32.6,16.3c-14.2,0-25.1-5.4-32.7-16.3s-11.4-26.5-11.4-47
		c0-20.3,3.8-35.8,11.4-46.7s18.6-16.2,32.9-16.2c14.1,0,25,5.4,32.5,16.3C397.2,29.9,401,45.5,401,65.8z M336.2,65.8
		c0,14,1.8,24.6,5.3,31.9c3.5,7.3,8.7,11,15.5,11c13.7,0,20.6-14.3,20.6-42.9s-6.8-42.9-20.5-42.9c-6.9,0-12.2,3.6-15.7,10.9
		C337.9,41.1,336.2,51.8,336.2,65.8z"/>
</g>
</svg>
