<?xml version="1.0" encoding="utf-8"?>
<!-- Generator: Adobe Illustrator 20.1.0, SVG Export Plug-In . SVG Version: 6.00 Build 0)  -->
<svg version="1.1" id="Layer_1" xmlns="http://www.w3.org/2000/svg" xmlns:xlink="http://www.w3.org/1999/xlink" x="0px" y="0px"
	 viewBox="0 0 174.5 47" style="enable-background:new 0 0 174.5 47;" xml:space="preserve">
<style type="text/css">
	.st0{fill:#2D2D2E;}
	.st1{fill:#2D2D2E;stroke:#2D2D2E;stroke-width:5;stroke-miterlimit:10;}
</style>
<g>
	<g>
		<path class="st0" d="M47.9,33.9c-0.4,0.6-1,1.3-1.8,2.1c-0.8,0.8-1.8,1.6-2.9,2.3c-1.1,0.7-2.5,1.3-4,1.8
			c-1.5,0.5-3.1,0.7-4.9,0.7c-2.6,0-4.9-0.5-7-1.4c-2.1-0.9-3.9-2.2-5.5-3.8c-1.5-1.6-2.7-3.5-3.6-5.7c-0.9-2.2-1.3-4.6-1.3-7.2
			c0-2.5,0.4-4.9,1.3-7.1c0.8-2.2,2-4.2,3.6-5.8c1.5-1.7,3.4-3,5.5-3.9c2.1-1,4.5-1.4,7.1-1.4c1.8,0,3.5,0.2,4.9,0.7
			c1.5,0.5,2.7,1,3.8,1.7c1.1,0.7,2,1.4,2.8,2.2c0.8,0.8,1.4,1.6,1.9,2.3l-3.5,3c-0.4-0.6-0.9-1.2-1.5-1.8c-0.6-0.6-1.3-1.2-2.1-1.7
			c-0.8-0.5-1.7-1-2.8-1.3C37,9.1,35.8,9,34.5,9c-1.9,0-3.6,0.4-5.1,1.1c-1.5,0.7-2.8,1.7-3.8,3c-1.1,1.2-1.9,2.7-2.4,4.4
			c-0.6,1.7-0.8,3.4-0.8,5.3s0.3,3.6,0.9,5.3c0.6,1.6,1.4,3.1,2.4,4.3c1,1.2,2.3,2.2,3.8,2.9c1.5,0.7,3.2,1,5,1c1.6,0,2.9-0.2,4-0.6
			c1.1-0.4,2.1-0.9,2.9-1.4c0.8-0.6,1.4-1.1,1.9-1.7c0.5-0.6,0.9-1,1.3-1.4L47.9,33.9z"/>
		<path class="st0" d="M53.7,5.3h5v14.5h19V5.3h5V40h-5V24.3h-19V40h-5V5.3z"/>
		<path class="st0" d="M90.5,5.3h11.1c2.2,0,4.1,0.3,5.6,0.9c1.5,0.6,2.8,1.4,3.7,2.3c1,1,1.6,2,2.1,3.2c0.4,1.2,0.6,2.4,0.6,3.7
			c0,2.2-0.5,4.2-1.6,5.9c-1,1.7-2.7,3-4.8,3.8l8.1,14.8h-5.6l-7.4-14.2h-7V40h-4.8V5.3z M102,21.6c2.2,0,3.8-0.5,4.9-1.6
			c1.1-1.1,1.6-2.5,1.6-4.3c0-1.9-0.6-3.4-1.8-4.4c-1.2-1.1-2.8-1.6-4.9-1.6h-6.6v12H102z"/>
		<path class="st0" d="M121.2,5.3h5V40h-5V5.3z"/>
		<path class="st0" d="M135.6,31.6c0.5,0.6,1,1.1,1.6,1.7c0.6,0.6,1.3,1.1,2.1,1.5c0.8,0.5,1.6,0.8,2.5,1.1c0.9,0.3,2,0.4,3.1,0.4
			c2.3,0,4.1-0.5,5.4-1.6c1.3-1,1.9-2.4,1.9-4.2c0-1.9-0.7-3.3-2.2-4.3c-1.5-1-3.6-1.7-6.3-2.3c-1.5-0.3-2.8-0.7-4.1-1.3
			c-1.2-0.6-2.3-1.2-3.1-2.1c-0.9-0.8-1.6-1.8-2.1-2.9c-0.5-1.1-0.7-2.3-0.7-3.7c0-1.3,0.2-2.5,0.7-3.6c0.5-1.1,1.2-2.1,2.2-3
			c1-0.9,2.2-1.6,3.6-2.1c1.5-0.5,3.1-0.8,5-0.8c1.7,0,3.2,0.2,4.4,0.5c1.2,0.4,2.3,0.8,3.1,1.3c0.9,0.5,1.6,1.1,2.1,1.6
			c0.5,0.6,0.9,1,1.2,1.4l-3.3,3.1c-0.2-0.2-0.5-0.6-0.9-1c-0.4-0.4-0.9-0.8-1.6-1.2c-0.6-0.4-1.4-0.7-2.2-1
			c-0.8-0.3-1.8-0.4-2.9-0.4c-1.1,0-2.1,0.1-2.9,0.4c-0.8,0.3-1.5,0.7-2,1.1c-0.5,0.5-0.9,1-1.1,1.6c-0.2,0.6-0.4,1.2-0.4,1.8
			c0,0.9,0.2,1.6,0.5,2.2c0.4,0.6,0.9,1.1,1.6,1.6c0.7,0.5,1.6,0.9,2.6,1.2c1,0.3,2.2,0.6,3.5,1c1.3,0.3,2.5,0.7,3.8,1.2
			c1.2,0.5,2.3,1.2,3.3,2c1,0.9,1.7,1.9,2.3,3.1c0.6,1.2,0.9,2.7,0.9,4.5c0,1.5-0.3,2.9-0.9,4.1c-0.6,1.2-1.5,2.3-2.6,3.2
			c-1.1,0.9-2.4,1.6-3.9,2.1c-1.5,0.5-3.1,0.8-4.8,0.8c-1.6,0-3.1-0.2-4.4-0.6c-1.3-0.4-2.5-0.9-3.6-1.5c-1.1-0.6-2-1.2-2.9-2
			c-0.8-0.7-1.5-1.4-2-2.1L135.6,31.6z"/>
	</g>
	<line class="st1" x1="4.5" y1="23" x2="169.5" y2="23"/>
</g>
</svg>
