<?xml version="1.0" encoding="utf-8"?>
<!-- Generator: Adobe Illustrator 20.1.0, SVG Export Plug-In . SVG Version: 6.00 Build 0)  -->
<svg version="1.1" id="Layer_1" xmlns="http://www.w3.org/2000/svg" xmlns:xlink="http://www.w3.org/1999/xlink" x="0px" y="0px"
	 viewBox="0 0 361.5 149.5" style="enable-background:new 0 0 361.5 149.5;" xml:space="preserve">
<style type="text/css">
	.st0{fill:#414759;}
	.st1{fill:#FC5151;}
</style>
<g>
	<g id="JnbVH1.tif">
		<g>
			<path class="st0" d="M72.9,80.2c0.2,0.1,0.3,0.2,0.4,0.4c3,2.7,6,5.4,8.9,8.2c1.1,1,2.2,1.6,3.6,1.6c0.3,0,0.7,0.2,1,0.3
				c1.7,1.1,3.3,2.2,5,3.3c0.2,0.2,0.5,0.4,0.7,0.6c7.1,7.1,14.2,14.1,21.3,21.2c0.1,0.1,0.2,0.2,0.3,0.3c0.3-0.3,0.6-0.6,1-0.9
				c-0.1-0.1-0.3-0.2-0.4-0.3c-6.2-6.1-12.4-12.3-18.6-18.4c-1.9-1.8-3.7-3.7-5-5.9c-0.2-0.3-0.4-0.6-0.6-0.9
				c-1-1.2-1.6-2.6-1.6-4.2c0-0.2-0.2-0.5-0.3-0.7c-2.5-2.7-5.1-5.5-7.6-8.2c-0.7-0.7-1.4-1.5-2.1-2.3c0.2-0.3,0.5-0.5,0.6-0.7
				c-0.2-0.3-0.4-0.5-0.7-0.8c-0.6,0.7-1.2,1.3-1.8,1.9c-0.6-0.7-1.3-1.3-1.9-1.9c1.1-2.3,2.1-4.6,3.2-6.9c0.1-0.3,0.1-0.4-0.1-0.6
				c-0.3-0.3-0.6-0.6-0.9-0.9c-15-14.9-29.9-29.7-44.9-44.6c-0.1-0.1-0.3-0.2-0.5-0.3c0-0.1,0-0.2,0-0.2c0.1-0.1,0.3-0.2,0.4-0.3
				c1.7-1.7,3.4-3.4,5.1-5.1c0.1-0.1,0.3-0.3,0.2-0.5c-0.1-0.5-0.4-0.9-0.5-1.4c-3.3,3.3-6.6,6.5-9.9,9.7c-3.1-2.8-6.2-5.7-9.5-8.6
				c0.2-0.1,0.4-0.2,0.5-0.4c1.2-1.2,2.5-2.5,3.7-3.7c0.1-0.1,0.2-0.4,0.2-0.5c-0.4-0.7-0.8-1.4-1.3-2.1C15.4,11.8,10,17.2,4.6,22.7
				c0.8,0.5,1.6,0.9,2.4,1.4c1.5-1.5,2.9-2.9,4.4-4.3c2.8,3.1,5.7,6.2,8.6,9.3c-3.3,3.3-6.5,6.5-9.8,9.8c0.4,0.2,0.8,0.3,1.2,0.5
				c0.3,0.2,0.5,0.1,0.7-0.2c1.7-1.7,3.3-3.4,5-5c0.2-0.2,0.3-0.4,0.4-0.6c0.2,0.2,0.4,0.3,0.5,0.5c11.3,11.2,22.7,22.5,34,33.7
				c3.9,3.8,7.7,7.7,11.6,11.5c0.4,0.4,0.7,0.5,1.2,0.2c2-1,4.1-2,6.2-3c0.1-0.1,0.4-0.1,0.5-0.1c0.6,0.6,1.2,1.2,1.9,1.9
				c-0.7,0.6-1.3,1.2-1.9,1.7c0.3,0.3,0.5,0.6,0.7,0.8C72.4,80.7,72.7,80.4,72.9,80.2z"/>
		</g>
	</g>
	<path class="st1" d="M74.6,66l-10,10L48,59.4c-0.8-0.8-0.4-2.1,0.6-2.4l1.7-0.5c0.6-0.2,1.1-0.6,1.3-1.2l0.5-3.3
		c0.1-0.8,0.6-1.5,1.2-2l1.2-0.9c1.1-0.8,2.5-0.7,3.5,0.3L74.6,66z"/>
	<path class="st1" d="M86.8,85.6l1.6,3.2c0.2,0.5-0.3,1-0.7,0.7L84.5,88c-0.1-0.1-0.3-0.2-0.4-0.3l-8.4-8.4l1.1-0.2l0-0.9l1.1-0.1
		l0.2-1.2l8.3,8.3C86.7,85.3,86.8,85.5,86.8,85.6z"/>
	<ellipse class="st1" cx="115" cy="136.5" rx="0.8" ry="1.7"/>
	<ellipse class="st1" cx="115.2" cy="130.7" rx="1" ry="2.2"/>
	<ellipse class="st1" cx="115.2" cy="122.2" rx="0.7" ry="5.2"/>
</g>
<ellipse class="st1" cx="188" cy="139.2" rx="101.5" ry="2.2"/>
<ellipse class="st1" cx="294.8" cy="143" rx="11.8" ry="1"/>
<ellipse class="st1" cx="90.2" cy="143.2" rx="13.8" ry="1.2"/>
</svg>
